<?xml version="1.0" encoding="UTF-8" standalone="no"?>
<svg
   xmlns:dc="http://purl.org/dc/elements/1.1/"
   xmlns:cc="http://creativecommons.org/ns#"
   xmlns:rdf="http://www.w3.org/1999/02/22-rdf-syntax-ns#"
   xmlns:svg="http://www.w3.org/2000/svg"
   xmlns="http://www.w3.org/2000/svg"
   xmlns:sodipodi="http://sodipodi.sourceforge.net/DTD/sodipodi-0.dtd"
   xmlns:inkscape="http://www.inkscape.org/namespaces/inkscape"
   role="img"
   viewBox="0 0 24 24"
   version="1.1"
   id="svg3753"
   sodipodi:docname="github.svg"
   inkscape:version="0.92.2 5c3e80d, 2017-08-06">
  <metadata
     id="metadata3759">
    <rdf:RDF>
      <cc:Work
         rdf:about="">
        <dc:format>image/svg+xml</dc:format>
        <dc:type
           rdf:resource="http://purl.org/dc/dcmitype/StillImage" />
      </cc:Work>
    </rdf:RDF>
  </metadata>
  <defs
     id="defs3757" />
  <sodipodi:namedview
     pagecolor="#ffffff"
     bordercolor="#666666"
     borderopacity="1"
     objecttolerance="10"
     gridtolerance="10"
     guidetolerance="10"
     inkscape:pageopacity="0"
     inkscape:pageshadow="2"
     inkscape:window-width="1562"
     inkscape:window-height="1158"
     id="namedview3755"
     showgrid="false"
     inkscape:zoom="39.25"
     inkscape:cx="12"
     inkscape:cy="12"
     inkscape:window-x="0"
     inkscape:window-y="0"
     inkscape:window-maximized="0"
     inkscape:current-layer="svg3753" />
  <title
     id="title3749">GitHub icon</title>
  <path
     d="M12 .297c-6.63 0-12 5.373-12 12 0 5.303 3.438 9.8 8.205 11.385.6.113.82-.258.82-.577 0-.285-.01-1.04-.015-2.04-3.338.724-4.042-1.61-4.042-1.61C4.422 18.07 3.633 17.7 3.633 17.7c-1.087-.744.084-.729.084-.729 1.205.084 1.838 1.236 1.838 1.236 1.07 1.835 2.809 1.305 3.495.998.108-.776.417-1.305.76-1.605-2.665-.3-5.466-1.332-5.466-5.93 0-1.31.465-2.38 1.235-3.22-.135-.303-.54-1.523.105-3.176 0 0 1.005-.322 3.3 1.23.96-.267 1.98-.399 3-.405 1.02.006 2.04.138 3 .405 2.28-1.552 3.285-1.23 3.285-1.23.645 1.653.24 2.873.12 3.176.765.84 1.23 1.91 1.23 3.22 0 4.61-2.805 5.625-5.475 5.92.42.36.81 1.096.81 2.22 0 1.606-.015 2.896-.015 3.286 0 .315.21.69.825.57C20.565 22.092 24 17.592 24 12.297c0-6.627-5.373-12-12-12"
     id="path3751" />
  <path
     style="fill:#00ff00;stroke-width:0.02547771"
     d="M 8.2178775,23.669191 C 8.076122,23.633208 7.5486882,23.432295 7.2127389,23.286307 5.8200217,22.681097 4.6149149,21.853476 3.5057325,20.740476 2.1815996,19.411785 1.2248829,17.868232 0.63857809,16.11465 0.18067012,14.74509 -0.01094993,13.467556 0.02332356,12.012739 0.05767462,10.554628 0.32326257,9.2289332 0.84645447,7.904041 2.2716886,4.2948843 5.3580693,1.5911692 9.1132242,0.66222838 12.91255,-0.27763921 16.935323,0.69397783 19.87108,3.2605643 c 3.107342,2.7165952 4.597182,6.7839437 3.975771,10.8540857 -0.26724,1.75038 -0.914905,3.400674 -1.914777,4.878981 -1.415641,2.093018 -3.471286,3.687408 -5.878571,4.55951 -0.309887,0.112265 -0.344602,0.11944 -0.539229,0.11145 -0.183263,-0.0075 -0.221163,-0.01777 -0.318471,-0.0861 -0.06075,-0.04266 -0.139115,-0.128648 -0.174147,-0.191083 l -0.06369,-0.113519 0.0089,-1.7707 c 0.0061,-1.218276 -3.42e-4,-1.869311 -0.0208,-2.086777 -0.06068,-0.645094 -0.26798,-1.218772 -0.583352,-1.614383 -0.09814,-0.123116 -0.145505,-0.201556 -0.125251,-0.207447 0.01791,-0.0052 0.175881,-0.02901 0.35104,-0.05289 2.980099,-0.406326 4.563136,-1.85984 4.95333,-4.548052 0.100736,-0.69401 0.112201,-1.588948 0.02709,-2.11465 C 19.431008,10.026905 19.085876,9.259095 18.556946,8.6275758 18.468509,8.5219862 18.411969,8.4322153 18.419238,8.4089307 18.555432,7.972642 18.607323,7.6994227 18.629969,7.2993631 18.648363,6.9744097 18.60938,6.4924573 18.535296,6.1289192 18.481808,5.8664538 18.320619,5.3345434 18.278869,5.2827358 18.213799,5.2019911 17.700758,5.2362196 17.275004,5.3497106 16.67025,5.5109172 15.975343,5.8436836 15.218988,6.3342647 15.012602,6.4681294 14.960465,6.4916627 14.911513,6.473051 14.810574,6.4346739 14.183363,6.3000553 13.849682,6.2451496 12.313573,5.9923893 10.624473,6.0638173 9.1702657,6.4430306 L 8.987665,6.4906474 8.8772721,6.4159595 C 8.639626,6.2551768 8.0812843,5.9314675 7.7881957,5.7845465 7.380371,5.5801103 7.0358864,5.444812 6.6851223,5.3513083 6.2537975,5.2363294 5.7407434,5.2014912 5.6752711,5.2827358 5.6622553,5.2988871 5.6109432,5.4385279 5.5612441,5.5930487 5.3634431,6.2080372 5.2838003,6.854373 5.3354104,7.425786 c 0.028865,0.3195827 0.120478,0.7603712 0.1947463,0.9370036 0.032623,0.077588 0.029929,0.083401 -0.1262178,0.2722583 -0.2411165,0.291628 -0.4347509,0.592865 -0.5989784,0.9318311 -0.3741248,0.772194 -0.5093269,1.543846 -0.4567302,2.606742 0.1314319,2.656029 1.2531096,4.285219 3.4559577,5.019634 0.5148367,0.171644 1.0412874,0.287865 1.7587616,0.388271 l 0.210083,0.0294 -0.1254988,0.137316 c -0.297049,0.325019 -0.4670607,0.721002 -0.6020064,1.402167 -0.00849,0.04284 -0.059776,0.07258 -0.2339312,0.135668 C 8.315693,19.465708 7.8261857,19.537555 7.4172665,19.490729 6.6663274,19.404736 6.1073664,19.029106 5.6160089,18.280255 5.496481,18.098089 5.3386915,17.877429 5.2653648,17.789898 4.9984171,17.471239 4.5593075,17.174875 4.155414,17.04077 4.0106293,16.9927 3.9219373,16.98149 3.6840764,16.98122 c -0.2537184,-2.88e-4 -0.3070695,0.0072 -0.3980012,0.05584 -0.058383,0.03123 -0.1115239,0.08109 -0.1196836,0.112294 -0.036609,0.139994 0.1599332,0.361892 0.5445605,0.614814 0.4833656,0.31785 0.883946,0.854455 1.2185941,1.632389 0.081009,0.188316 0.1770395,0.393158 0.2134013,0.455205 0.4037539,0.688954 1.1149817,1.156175 1.9933582,1.30948 0.4518393,0.07886 1.2932617,0.04866 1.7778352,-0.06381 l 0.096307,-0.02235 -0.00713,1.114173 -0.00713,1.114174 -0.07666,0.123959 c -0.1275389,0.206228 -0.4304851,0.31063 -0.7016405,0.2418 z"
     id="path3761"
     inkscape:connector-curvature="0" />
</svg>
